HIERARCHY
ROOT Hips
{
	OFFSET 0.00 0.00 0.00
	CHANNELS 6 Xposition Yposition Zposition Xrotation Yrotation Zrotation
	JOINT Spine
	{
		OFFSET 0.00000 7.53995 0.00000
		CHANNELS 3 Xrotation Yrotation Zrotation
		JOINT Head
		{
			OFFSET 0.00000 15.09381 0.00000
			CHANNELS 3 Xrotation Yrotation Zrotation
			End Site
			{
				OFFSET 0.00000 4.52755 0.00000
			}
		}
		JOINT LeftShoulder
		{
			OFFSET 0.00000 9.73893 0.00000
			CHANNELS 3 Xrotation Yrotation Zrotation
			JOINT LeftArm
			{
				OFFSET 7.08401 0.00000 0.00000
				CHANNELS 3 Xrotation Yrotation Zrotation
				JOINT LeftForeArm
				{
					OFFSET 10.25932 0.00000 0.00000
					CHANNELS 3 Yrotation Zrotation Xrotation
					JOINT LeftHand
					{
						OFFSET 9.89698 0.00000 0.00000
						CHANNELS 3 Xrotation Yrotation Zrotation
						JOINT LeftHandThumb1
						{
							OFFSET 0.00000 0.00000 0.00000
							CHANNELS 3 Xrotation Zrotation Yrotation
							End Site
							{
								OFFSET 0.00000 0.00000 3.93700
							}
						}
						End Site
						{
							OFFSET 3.93700 0.00000 0.00000
						}
					}
				}
			}
		}
		JOINT RightShoulder
		{
			OFFSET 0.00000 9.73893 0.00000
			CHANNELS 3 Xrotation Yrotation Zrotation
			JOINT RightArm
			{
				OFFSET -7.08401 0.00000 0.00000
				CHANNELS 3 Xrotation Yrotation Zrotation
				JOINT RightForeArm
				{
					OFFSET -10.25932 0.00000 0.00000
					CHANNELS 3 Yrotation Zrotation Xrotation
					JOINT RightHand
					{
						OFFSET -9.89698 0.00000 0.00000
						CHANNELS 3 Xrotation Yrotation Zrotation
						JOINT RightHandThumb1
						{
							OFFSET 0.00000 0.00000 0.00000
							CHANNELS 3 Xrotation Zrotation Yrotation
							End Site
							{
								OFFSET 0.00000 0.00000 3.93700
							}
						}
						End Site
						{
							OFFSET -3.93700 0.00000 0.00000
						}
					}
				}
			}
		}
	}
	JOINT LeftUpLeg
	{
		OFFSET 3.34548 0.00000 0.00000
		CHANNELS 3 Xrotation Yrotation Zrotation
		JOINT LeftLeg
		{
			OFFSET 0.00000 -19.11473 0.00000
			CHANNELS 3 Xrotation Yrotation Zrotation
			JOINT LeftFoot
			{
				OFFSET 0.00000 -16.04560 0.00000
				CHANNELS 3 Xrotation Yrotation Zrotation
				JOINT LeftToeBase
				{
					OFFSET 0.00000 -1.43467 5.35428
					CHANNELS 3 Xrotation Yrotation Zrotation
					End Site
					{
						OFFSET 0.00000 0.00000 2.95275
					}
				}
			}
		}
	}
	JOINT RightUpLeg
	{
		OFFSET -3.34548 0.00000 0.00000
		CHANNELS 3 Xrotation Yrotation Zrotation
		JOINT RightLeg
		{
			OFFSET 0.00000 -19.11473 0.00000
			CHANNELS 3 Xrotation Yrotation Zrotation
			JOINT RightFoot
			{
				OFFSET 0.00000 -16.04560 0.00000
				CHANNELS 3 Xrotation Yrotation Zrotation
				JOINT RightToeBase
				{
					OFFSET 0.00000 -1.43467 5.35428
					CHANNELS 3 Xrotation Yrotation Zrotation
					End Site
					{
						OFFSET 0.00000 0.00000 2.95275
					}
				}
			}
		}
	}
}
MOTION
Frames: 9
Frame Time: 0.008333
 -0.5578 37.5841 6.5510 -42.8247 3.1082 2.7086 55.0711 -7.4446 -2.4005 -9.6272 22.3206 5.2094 -24.3123 -17.3668 11.9077 -38.1875 30.8146 -47.0283 -113.3690 -0.0000 -63.0304 -0.8578 -2.0897 -22.3244 33.1476 -0.0000 26.2537 11.3376 1.8486 -9.1624 -10.7811 46.5168 69.7486 43.5063 -0.0000 164.4119 162.3781 39.0260 26.7687 32.8623 0.0000 -24.3270 51.6831 15.7038 4.7238 -2.3553 -0.0000 0.0000 -4.4543 7.2079 -15.5782 14.1047 0.0000 0.0000 48.4449 -26.6346 -5.4702 -0.0590 0.0000 -0.0000 0.9731 -0.5310 26.3063 8.6014 -0.0000 0.0000
 -0.5576 37.5841 6.5516 -42.8272 3.1174 2.7189 55.0673 -7.4388 -2.3993 -9.6277 22.3396 5.2249 -24.3205 -17.3720 11.9116 -38.1415 30.7933 -47.0913 -113.3975 -0.0000 -62.9429 -0.8997 -2.1659 -22.5632 33.1476 -0.0000 26.2537 11.3590 1.8390 -9.1462 -10.8099 46.4972 69.7528 43.4765 -0.0000 164.4449 162.3630 39.0245 26.7905 32.8623 0.0000 -24.3270 51.6876 15.6981 4.7208 -2.3547 -0.0000 -0.0000 -4.4203 7.1039 -15.4045 13.8270 0.0000 -0.0000 48.4455 -26.6481 -5.4694 -0.0553 -0.0000 -0.0000 0.9784 -0.5068 26.2587 8.5264 0.0000 -0.0000
 -0.5576 37.5841 6.5523 -42.8298 3.1291 2.7348 55.0651 -7.4272 -2.3957 -9.6283 22.3495 5.2291 -24.3204 -17.3716 11.9228 -38.1126 30.7725 -47.1701 -113.3904 -0.0000 -63.0751 -0.8808 -2.1371 -22.4055 33.1476 -0.0000 26.2537 11.3539 1.8331 -9.1406 -10.7965 46.4993 69.7426 43.4479 -0.0000 164.4361 162.3691 39.0188 26.7849 32.8623 0.0000 -24.3270 51.6913 15.6918 4.7220 -2.3700 -0.0000 -0.0000 -4.4421 7.1859 -15.5685 14.1147 -0.0000 0.0000 48.4523 -26.6603 -5.4703 -0.0600 0.0000 0.0000 0.9909 -0.5093 26.2795 8.4974 0.0000 0.0000
 -0.5571 37.5841 6.5527 -42.8309 3.1328 2.7460 55.0622 -7.4226 -2.3888 -9.6273 22.3747 5.2199 -24.3474 -17.3720 11.9089 -38.0591 30.7469 -47.2231 -113.4003 -0.0000 -63.1752 -0.8865 -2.1623 -22.2983 33.1476 -0.0000 26.2537 11.3596 1.8465 -9.1477 -10.7918 46.4958 69.7330 43.4302 -0.0000 164.4390 162.4030 38.9992 26.7474 32.8623 0.0000 -24.3270 51.6937 15.7013 4.7167 -2.3752 -0.0000 -0.0000 -4.4426 7.1750 -15.5642 14.1250 0.0000 -0.0000 48.4534 -26.6476 -5.4796 -0.0533 -0.0000 0.0000 0.9760 -0.5589 26.3387 8.6318 0.0000 -0.0000
 -0.5566 37.5842 6.5539 -42.8324 3.1451 2.7631 55.0560 -7.4182 -2.3878 -9.6259 22.3877 5.2232 -24.3247 -17.3768 11.9140 -38.0319 30.7113 -47.2950 -113.4249 -0.0000 -63.1816 -0.9199 -2.2399 -22.3335 33.1476 -0.0000 26.2537 11.3528 1.8470 -9.1396 -10.7807 46.4865 69.7257 43.4030 -0.0000 164.4604 162.4123 39.0185 26.7247 32.8623 0.0000 -24.3270 51.6955 15.6960 4.7140 -2.3792 0.0000 0.0000 -4.4349 7.1581 -15.5517 14.1094 -0.0000 -0.0000 48.4594 -26.6659 -5.4790 -0.0605 0.0000 -0.0000 0.9761 -0.5372 26.2796 8.5268 -0.0000 0.0000
 -0.5565 37.5843 6.5542 -42.8332 3.1496 2.7718 55.0513 -7.4145 -2.3818 -9.6206 22.4092 5.2136 -24.3565 -17.3862 11.9015 -37.9624 30.6763 -47.3556 -113.4483 -0.0000 -63.2440 -0.9184 -2.2432 -22.2713 33.1476 -0.0000 26.2537 11.3567 1.8603 -9.1457 -10.7853 46.4826 69.7197 43.3792 -0.0000 164.4448 162.4058 39.0078 26.7392 32.8623 0.0000 -24.3270 51.6968 15.6939 4.7106 -2.3822 -0.0000 0.0000 -4.4345 7.1560 -15.5633 14.1166 0.0000 -0.0000 48.4625 -26.6689 -5.4798 -0.0641 -0.0000 -0.0000 0.9867 -0.5419 26.2526 8.4862 -0.0000 0.0000
 -0.5541 37.5843 6.5546 -42.8316 3.2492 2.8411 55.0434 -7.4835 -2.3578 -9.6274 22.3916 5.2283 -24.3264 -17.3926 11.9175 -37.9511 30.6077 -47.4484 -113.4488 -0.0000 -63.2794 -0.9354 -2.2864 -22.2583 33.1476 -0.0000 26.2537 11.3260 1.8495 -9.1232 -10.7599 46.4740 69.7304 43.3646 -0.0000 164.4519 162.4066 39.0122 26.7358 32.8623 0.0000 -24.3270 51.6729 15.5585 4.7423 -2.3792 -0.0000 -0.0000 -4.4350 7.1712 -15.5377 14.0826 -0.0000 -0.0000 48.4830 -26.8122 -5.4522 -0.0775 0.0000 0.0000 1.0080 -0.5070 26.2719 8.4907 -0.0000 0.0000
 -0.5525 37.5844 6.5542 -42.8335 3.3090 2.8898 55.0411 -7.5372 -2.3474 -9.6345 22.3850 5.2419 -24.3328 -17.4047 11.9248 -37.9054 30.5662 -47.5312 -113.4705 -0.0000 -63.2944 -0.9391 -2.3022 -22.1974 33.1476 -0.0000 26.2537 11.3254 1.8570 -9.1103 -10.7969 46.4758 69.7495 43.3086 -0.0000 164.4872 162.3815 39.0431 26.7555 32.8623 0.0000 -24.3270 51.6563 15.4789 4.7573 -2.3700 0.0000 0.0000 -4.4437 7.1799 -15.5413 14.0770 -0.0000 -0.0000 48.4956 -26.8916 -5.4427 -0.0786 -0.0000 -0.0000 0.9993 -0.5314 26.3539 8.6094 -0.0000 -0.0000
 -0.5527 37.5841 6.5530 -42.8334 3.3077 2.8958 55.0412 -7.5332 -2.3456 -9.6350 22.3928 5.2327 -24.3603 -17.4221 11.9231 -37.8354 30.5464 -47.6046 -113.5063 -0.0000 -63.2041 -0.9505 -2.3167 -22.3149 33.1476 -0.0000 26.2537 11.3248 1.8811 -9.1239 -10.7929 46.4708 69.7315 43.3151 -0.0000 164.4724 162.4271 39.0339 26.6966 32.8623 0.0000 -24.3270 51.6547 15.4788 4.7533 -2.3677 -0.0000 -0.0000 -4.4479 7.1792 -15.5502 14.0937 0.0000 0.0000 48.4910 -26.8906 -5.4494 -0.0765 -0.0000 0.0000 0.9868 -0.5267 26.3418 8.6239 0.0000 -0.0000
